<svg width="192" height="192" viewBox="0 0 42 44" fill="none" xmlns="http://www.w3.org/2000/svg">
<path fill-rule="evenodd" clip-rule="evenodd" d="M0 1.43391C0 1.07346 0.292207 0.78125 0.652662 0.78125H40.6808C41.0413 0.78125 41.3335 1.07346 41.3335 1.43391V15.5598C41.3335 15.9202 41.0413 16.2124 40.6808 16.2124H28.3202V42.5664C28.3202 42.9269 28.028 43.2191 27.6675 43.2191H13.5417C13.1812 43.2191 12.889 42.9269 12.889 42.5664V33.646C18.653 26.5154 21.1044 17.4612 21.8022 14.4194L24.5633 16.4255L23.2186 12.2811L26.7403 9.72395H22.3809L21.0362 5.58516L19.6915 9.72395H15.3322L18.8593 12.2811L17.5201 16.4365L20.0717 14.5793C19.3837 16.6348 17.4878 21.002 12.889 25.2202V16.2124H0.65266C0.292205 16.2124 0 15.9202 0 15.5598V1.43391Z" fill="#03FFA3"/>
</svg>
