<svg width="189" height="44" viewBox="0 0 189 44" fill="none" xmlns="http://www.w3.org/2000/svg">
<path fill-rule="evenodd" clip-rule="evenodd" d="M0 1.43391C0 1.07346 0.292207 0.78125 0.652662 0.78125H40.6808C41.0413 0.78125 41.3335 1.07346 41.3335 1.43391V15.5598C41.3335 15.9202 41.0413 16.2124 40.6808 16.2124H28.3202V42.5664C28.3202 42.9269 28.028 43.2191 27.6675 43.2191H13.5417C13.1812 43.2191 12.889 42.9269 12.889 42.5664V33.646C18.653 26.5154 21.1044 17.4612 21.8022 14.4194L24.5633 16.4255L23.2186 12.2811L26.7403 9.72395H22.3809L21.0362 5.58516L19.6915 9.72395H15.3322L18.8593 12.2811L17.5201 16.4365L20.0717 14.5793C19.3837 16.6348 17.4878 21.002 12.889 25.2202V16.2124H0.65266C0.292205 16.2124 0 15.9202 0 15.5598V1.43391Z" fill="#03FFA3"/>
<path d="M72.6441 16.2787H65.2715V35.4087H60.8219V16.2787H53.4492V12.3488H72.6441V16.2787Z" fill="white"/>
<path d="M83.6004 22.1574C82.2796 22.1574 81.0995 22.4172 80.0602 22.9368C79.0209 23.4349 78.2739 24.1602 77.8192 25.1129V35.4087H73.467V18.3898H77.4619V22.0274C78.0682 20.8582 78.8368 19.938 79.7679 19.2668C80.6989 18.5955 81.6841 18.2274 82.7234 18.1625C82.9616 18.1625 83.1457 18.1625 83.2756 18.1625C83.4055 18.1625 83.5138 18.1733 83.6004 18.195V22.1574Z" fill="white"/>
<path d="M84.7627 30.3745C84.7627 29.2702 85.0659 28.3067 85.6721 27.4839C86.3001 26.6394 87.1662 25.9898 88.2704 25.5351C89.3747 25.0804 90.6414 24.8531 92.0705 24.8531C92.785 24.8531 93.5103 24.9072 94.2465 25.0155C94.9827 25.1237 95.6215 25.297 96.1628 25.5351V24.6257C96.1628 23.5431 95.838 22.7095 95.1884 22.1249C94.5605 21.5403 93.6186 21.248 92.3628 21.248C91.4317 21.248 90.544 21.4104 89.6995 21.7351C88.8551 22.0599 87.9673 22.5363 87.0363 23.1642L85.6397 20.3061C86.7656 19.5699 87.9132 19.0178 89.0824 18.6497C90.2733 18.2816 91.5183 18.0975 92.8175 18.0975C95.2425 18.0975 97.1263 18.7038 98.4688 19.9163C99.8329 21.1289 100.515 22.8611 100.515 25.1129V30.5369C100.515 30.9916 100.591 31.3164 100.742 31.5112C100.915 31.7061 101.186 31.8252 101.554 31.8685V35.4087C101.164 35.4736 100.807 35.5278 100.482 35.5711C100.179 35.6144 99.9195 35.636 99.7029 35.636C98.8369 35.636 98.1765 35.4412 97.7217 35.0514C97.2887 34.6617 97.018 34.1853 96.9098 33.6223L96.8123 32.7454C96.0762 33.6981 95.1559 34.4343 94.0517 34.954C92.9474 35.4736 91.8214 35.7335 90.6739 35.7335C89.5479 35.7335 88.5303 35.5061 87.6209 35.0514C86.7331 34.5751 86.0294 33.9363 85.5098 33.1352C85.0117 32.3124 84.7627 31.3921 84.7627 30.3745ZM95.3508 31.2514C95.589 30.9916 95.7839 30.7317 95.9354 30.4719C96.087 30.2121 96.1628 29.9739 96.1628 29.7574V28.036C95.6431 27.8195 95.0801 27.6571 94.4739 27.5488C93.8676 27.4189 93.2938 27.354 92.7525 27.354C91.6266 27.354 90.6955 27.603 89.9593 28.101C89.2448 28.5773 88.8875 29.2161 88.8875 30.0172C88.8875 30.4503 89.0066 30.8617 89.2448 31.2514C89.483 31.6411 89.8294 31.9551 90.2841 32.1933C90.7388 32.4315 91.2801 32.5505 91.9081 32.5505C92.5576 32.5505 93.1964 32.4315 93.8243 32.1933C94.4522 31.9335 94.9611 31.6195 95.3508 31.2514Z" fill="white"/>
<path d="M103.543 26.8993C103.543 25.2537 103.867 23.7705 104.517 22.4497C105.166 21.1072 106.065 20.0462 107.213 19.2668C108.36 18.4873 109.67 18.0975 111.143 18.0975C112.398 18.0975 113.524 18.4115 114.52 19.0394C115.538 19.6457 116.328 20.4252 116.891 21.3779V11.6992H121.243V30.5369C121.243 30.9916 121.319 31.3164 121.471 31.5112C121.622 31.7061 121.882 31.8252 122.25 31.8685V35.4087C121.492 35.5602 120.875 35.636 120.399 35.636C119.62 35.636 118.97 35.4412 118.45 35.0514C117.952 34.6617 117.671 34.1528 117.606 33.5249L117.541 32.4531C116.913 33.5141 116.058 34.326 114.975 34.889C113.914 35.452 112.799 35.7335 111.63 35.7335C110.461 35.7335 109.378 35.5061 108.382 35.0514C107.408 34.5967 106.552 33.9688 105.816 33.1676C105.102 32.3665 104.539 31.4354 104.127 30.3745C103.737 29.2918 103.543 28.1334 103.543 26.8993ZM116.891 29.1728V25.1129C116.675 24.485 116.328 23.922 115.852 23.424C115.376 22.926 114.845 22.5363 114.261 22.2548C113.676 21.9517 113.091 21.8001 112.507 21.8001C111.835 21.8001 111.229 21.9408 110.688 22.2223C110.147 22.5038 109.67 22.8827 109.259 23.3591C108.869 23.8354 108.566 24.3876 108.349 25.0155C108.155 25.6434 108.057 26.3038 108.057 26.9967C108.057 27.6896 108.165 28.35 108.382 28.9779C108.62 29.5842 108.956 30.1146 109.389 30.5693C109.822 31.024 110.32 31.3813 110.883 31.6411C111.467 31.901 112.095 32.0309 112.766 32.0309C113.178 32.0309 113.589 31.9659 114.001 31.836C114.434 31.6844 114.834 31.4896 115.202 31.2514C115.592 30.9916 115.928 30.6884 116.209 30.342C116.512 29.9739 116.74 29.5842 116.891 29.1728Z" fill="white"/>
<path d="M133.408 35.7335C132.044 35.7335 130.809 35.5061 129.705 35.0514C128.601 34.5751 127.659 33.9363 126.88 33.1352C126.1 32.3124 125.494 31.3813 125.061 30.342C124.649 29.281 124.444 28.1659 124.444 26.9967C124.444 25.3728 124.801 23.8896 125.515 22.5471C126.252 21.2047 127.291 20.1329 128.633 19.3317C129.997 18.5089 131.6 18.0975 133.44 18.0975C135.302 18.0975 136.894 18.5089 138.215 19.3317C139.535 20.1329 140.542 21.2047 141.235 22.5471C141.95 23.8679 142.307 25.297 142.307 26.8343C142.307 27.0941 142.296 27.3648 142.274 27.6463C142.253 27.9061 142.231 28.1226 142.209 28.2958H129.056C129.142 29.1619 129.391 29.9198 129.803 30.5693C130.236 31.2189 130.777 31.7169 131.427 32.0634C132.098 32.3882 132.812 32.5505 133.57 32.5505C134.436 32.5505 135.248 32.3448 136.006 31.9335C136.786 31.5004 137.316 30.9374 137.597 30.2446L141.333 31.2839C140.921 32.15 140.326 32.9186 139.546 33.5899C138.788 34.2611 137.89 34.7916 136.85 35.1813C135.811 35.5494 134.664 35.7335 133.408 35.7335ZM128.958 25.5351H137.857C137.771 24.669 137.522 23.922 137.11 23.2941C136.721 22.6445 136.201 22.1465 135.551 21.8001C134.902 21.432 134.176 21.248 133.375 21.248C132.596 21.248 131.881 21.432 131.232 21.8001C130.604 22.1465 130.084 22.6445 129.673 23.2941C129.283 23.922 129.045 24.669 128.958 25.5351Z" fill="white"/>
<path d="M151.227 35.7335C149.776 35.7335 148.39 35.4953 147.069 35.0189C145.749 34.5426 144.612 33.8389 143.659 32.9078L145.218 30.0822C146.236 30.905 147.232 31.5112 148.206 31.901C149.202 32.2907 150.155 32.4856 151.064 32.4856C151.909 32.4856 152.58 32.334 153.078 32.0309C153.598 31.7278 153.857 31.2731 153.857 30.6668C153.857 30.2554 153.717 29.9414 153.435 29.7249C153.154 29.4867 152.742 29.281 152.201 29.1078C151.681 28.9346 151.043 28.7397 150.285 28.5232C149.029 28.1118 147.979 27.7112 147.134 27.3215C146.29 26.9317 145.651 26.4445 145.218 25.8599C144.807 25.2537 144.601 24.485 144.601 23.5539C144.601 22.428 144.882 21.4645 145.445 20.6633C146.03 19.8405 146.831 19.2018 147.849 18.7471C148.888 18.2924 150.101 18.065 151.486 18.065C152.699 18.065 153.847 18.2599 154.929 18.6497C156.012 19.0178 156.997 19.624 157.885 20.4685L156.131 23.2292C155.265 22.5579 154.442 22.0708 153.663 21.7676C152.883 21.4428 152.093 21.2804 151.292 21.2804C150.837 21.2804 150.404 21.3346 149.992 21.4428C149.603 21.5511 149.278 21.7351 149.018 21.995C148.78 22.2331 148.661 22.5796 148.661 23.0343C148.661 23.4457 148.769 23.7705 148.986 24.0086C149.224 24.2252 149.57 24.42 150.025 24.5933C150.501 24.7665 151.075 24.9614 151.746 25.1779C153.11 25.5676 154.258 25.9682 155.189 26.3796C156.142 26.791 156.856 27.2998 157.333 27.9061C157.809 28.4907 158.047 29.3027 158.047 30.342C158.047 32.0309 157.43 33.3517 156.196 34.3044C154.962 35.2571 153.305 35.7335 151.227 35.7335Z" fill="white"/>
<path d="M171.11 34.5317C170.742 34.6833 170.298 34.8565 169.779 35.0514C169.259 35.2463 168.696 35.3978 168.09 35.5061C167.505 35.636 166.91 35.701 166.304 35.701C165.502 35.701 164.766 35.5602 164.095 35.2788C163.424 34.9973 162.882 34.5534 162.471 33.9471C162.081 33.3192 161.886 32.5072 161.886 31.5112V21.7351H159.645V18.3898H161.886V12.8685H166.239V18.3898H169.811V21.7351H166.239V30.0497C166.26 30.6343 166.423 31.0565 166.726 31.3164C167.029 31.5762 167.408 31.7061 167.863 31.7061C168.317 31.7061 168.761 31.6303 169.194 31.4788C169.627 31.3272 169.974 31.1973 170.234 31.089L171.11 34.5317Z" fill="white"/>
<path d="M172.208 30.3745C172.208 29.2702 172.511 28.3067 173.117 27.4839C173.745 26.6394 174.611 25.9898 175.716 25.5351C176.82 25.0804 178.086 24.8531 179.516 24.8531C180.23 24.8531 180.955 24.9072 181.692 25.0155C182.428 25.1237 183.067 25.297 183.608 25.5351V24.6257C183.608 23.5431 183.283 22.7095 182.634 22.1249C182.006 21.5403 181.064 21.248 179.808 21.248C178.877 21.248 177.989 21.4104 177.145 21.7351C176.3 22.0599 175.412 22.5363 174.481 23.1642L173.085 20.3061C174.211 19.5699 175.358 19.0178 176.528 18.6497C177.718 18.2816 178.963 18.0975 180.263 18.0975C182.688 18.0975 184.571 18.7038 185.914 19.9163C187.278 21.1289 187.96 22.8611 187.96 25.1129V30.5369C187.96 30.9916 188.036 31.3164 188.187 31.5112C188.361 31.7061 188.631 31.8252 188.999 31.8685V35.4087C188.61 35.4736 188.252 35.5278 187.928 35.5711C187.624 35.6144 187.365 35.636 187.148 35.636C186.282 35.636 185.622 35.4412 185.167 35.0514C184.734 34.6617 184.463 34.1853 184.355 33.6223L184.257 32.7454C183.521 33.6981 182.601 34.4343 181.497 34.954C180.392 35.4736 179.267 35.7335 178.119 35.7335C176.993 35.7335 175.975 35.5061 175.066 35.0514C174.178 34.5751 173.475 33.9363 172.955 33.1352C172.457 32.3124 172.208 31.3921 172.208 30.3745ZM182.796 31.2514C183.034 30.9916 183.229 30.7317 183.381 30.4719C183.532 30.2121 183.608 29.9739 183.608 29.7574V28.036C183.088 27.8195 182.525 27.6571 181.919 27.5488C181.313 27.4189 180.739 27.354 180.198 27.354C179.072 27.354 178.141 27.603 177.404 28.101C176.69 28.5773 176.333 29.2161 176.333 30.0172C176.333 30.4503 176.452 30.8617 176.69 31.2514C176.928 31.6411 177.275 31.9551 177.729 32.1933C178.184 32.4315 178.725 32.5505 179.353 32.5505C180.003 32.5505 180.641 32.4315 181.269 32.1933C181.897 31.9335 182.406 31.6195 182.796 31.2514Z" fill="white"/>
</svg>
